<?xml version="1.0" encoding="UTF-8"?> <svg xmlns="http://www.w3.org/2000/svg" width="392" height="92" viewBox="0 0 392 92" fill="none"><g clip-path="url(#clip0_8623_10921)"><path d="M104.486 88.1363V58.6062C104.486 58.1049 104.694 57.6521 105.016 57.3125C105.353 56.989 105.803 56.7788 106.302 56.7788C112.297 56.7788 117.166 61.6789 117.166 67.7111V85.3062C118.468 84.8858 119.738 84.4168 120.992 83.9316V58.6062C120.992 57.6035 121.811 56.7788 122.808 56.7788C128.803 56.7788 133.673 61.6789 133.673 67.7111V77.7377C134.926 77.01 136.148 76.2661 137.321 75.5222V58.6062C137.321 57.6035 138.141 56.7788 139.137 56.7788C144.65 56.7788 149.198 60.9026 149.922 66.2556C154.502 62.4066 157.154 59.6089 157.154 59.6089L157.234 59.2046C156.495 57.4903 155.74 55.8246 154.984 54.2074H94.119C91.3707 54.2074 88.8955 53.0916 87.0955 51.2803C85.2954 49.4852 84.1864 46.9785 84.1864 44.2131C84.1864 43.2913 84.9257 42.5474 85.8418 42.5474H148.861C148.234 41.4639 147.591 40.4127 146.948 39.41H87.7223C81.2452 39.41 76.0057 34.1379 76.0057 27.6206C76.0057 26.5371 76.8736 25.6638 77.9504 25.6638H136.598C123.967 11.8579 110.393 6.94696 97.5184 6.92052H97.309C66.0123 6.98471 38.7986 35.7875 38.7986 35.7875L38.7188 36.1892V36.193C57.8446 80.2769 82.5794 90.6106 104.486 88.1363Z" fill="url(#paint0_radial_8623_10921)"></path><path d="M31.0674 33.9601L30.971 34.4129L30.9871 34.3968C48.1521 68.4227 68.1459 85.0152 87.8343 91.5002C63.9993 89.0259 38.541 73.7271 17.4061 31.7122L17.4864 31.2594C17.4864 31.2594 61.492 -10.4321 107.78 3.26562C66.7315 0.241453 31.0674 33.9601 31.0674 33.9601Z" fill="#C9991F"></path><path d="M25.4258 7.19548L27.4508 4.68882V4.72116C27.6276 4.49475 27.4187 4.15514 27.1294 4.236L24.0275 5.06078C23.8989 5.09312 23.7703 5.0446 23.69 4.9314L21.9542 2.2145C21.7934 1.95575 21.4077 2.06895 21.3916 2.36005L21.2148 5.57828C21.2148 5.70766 21.1184 5.82086 20.9898 5.85321L17.8879 6.67798C17.5986 6.74267 17.5825 7.14697 17.8558 7.26017L20.8452 8.42456C20.9577 8.47307 21.0381 8.60245 21.0381 8.73183L20.8613 11.9501C20.8452 12.2412 21.2148 12.3867 21.4077 12.1603L23.4328 9.65363C23.5292 9.5566 23.6578 9.50808 23.7864 9.5566L26.7758 10.721C27.049 10.8342 27.3062 10.5107 27.1455 10.2682L25.4097 7.55127C25.3293 7.43806 25.3454 7.29252 25.4258 7.19548Z" fill="#C9991F"></path><path d="M11.3952 15.6531L10.1737 19.3889C10.0933 19.6476 10.1737 19.9226 10.3987 20.0843L13.5488 22.3969C14.031 22.7527 13.7899 23.5289 13.1792 23.5289H9.27363C9.00041 23.5289 8.7754 23.6906 8.67896 23.9494L7.45748 27.6851C7.26461 28.2511 6.461 28.2511 6.28421 27.6851L5.09487 23.9494C5.01451 23.6906 4.77343 23.5127 4.5002 23.5127H0.610738C0.0160678 23.5127 -0.241087 22.7365 0.25715 22.3807L3.42337 20.0843C3.6323 19.9226 3.72874 19.6476 3.64838 19.3889L2.45904 15.6531C2.28224 15.0709 2.92513 14.602 3.40729 14.9577L6.55744 17.2703C6.76638 17.4321 7.07175 17.4321 7.28068 17.2703L10.4469 14.9739C10.9291 14.6181 11.588 15.1033 11.3952 15.6693V15.6531Z" fill="#C9991F"></path><path d="M6.62168 40.1055L5.07875 37.3401L5.03054 37.3077C4.88589 37.049 4.50015 37.1298 4.46801 37.4209L4.11442 40.5745C4.09835 40.72 4.00192 40.817 3.87334 40.8494L0.787485 41.4801C0.498186 41.5448 0.44997 41.9329 0.723196 42.0623L3.58404 43.3722C3.69655 43.4369 3.76083 43.5663 3.76083 43.6957L3.39117 46.8492C3.35903 47.1403 3.72869 47.3182 3.92156 47.0918L6.05915 44.763C6.15559 44.666 6.30024 44.6498 6.41274 44.6983L9.27359 46.0244C9.54681 46.1376 9.82004 45.8465 9.67539 45.5878L8.13246 42.8224C8.06817 42.7092 8.08425 42.5636 8.18068 42.4666L10.3183 40.1378C10.5111 39.9114 10.3183 39.5556 10.029 39.6203L6.94312 40.251C6.81455 40.2834 6.68597 40.2187 6.62168 40.1055Z" fill="#C9991F"></path><path d="M18.5165 52.7036L18.5808 54.8868C18.5808 55.0162 18.6772 55.1294 18.8058 55.1779L20.8952 55.7925C21.1845 55.8733 21.1845 56.2776 20.8952 56.3747L18.854 57.1024C18.7254 57.1509 18.6451 57.2641 18.6451 57.3935L18.7093 59.5767C18.7093 59.8678 18.3397 60.0134 18.1629 59.7708L16.8289 58.0404C16.7485 57.9272 16.6039 57.8948 16.4914 57.9434L14.4502 58.6873C14.177 58.7843 13.9198 58.477 14.0966 58.2183L15.3181 56.407C15.3985 56.2938 15.3824 56.1483 15.3181 56.0512L14.0002 54.3208C13.8234 54.0782 14.0484 53.7548 14.3216 53.8357L16.411 54.4502C16.5396 54.4825 16.6682 54.4502 16.7485 54.337L17.97 52.5257C18.1307 52.2831 18.5165 52.3964 18.5325 52.6875L18.5165 52.7036Z" fill="#C9991F"></path><path d="M29.9884 64.1046L29.6187 62.9726C29.5223 62.6976 29.1366 62.6976 29.0401 62.9726L28.6705 64.1046C28.6383 64.234 28.5098 64.3148 28.3812 64.3148H27.1918C26.9025 64.3148 26.774 64.6868 27.015 64.8647L27.9794 65.5601C28.0919 65.6248 28.1401 65.7703 28.0919 65.8997L27.7222 67.0317C27.6258 67.3067 27.9472 67.5492 28.1883 67.3713L29.1526 66.6759C29.2491 66.5951 29.3937 66.5951 29.5062 66.6759L30.4706 67.3713C30.7116 67.5492 31.0331 67.3228 30.9366 67.0317L30.567 65.8997C30.5188 65.7703 30.567 65.6409 30.6795 65.5601L31.6438 64.8647C31.8849 64.703 31.7563 64.3148 31.467 64.3148H30.2777C30.1491 64.3148 30.0366 64.234 29.9884 64.1046Z" fill="#C9991F"></path><path fill-rule="evenodd" clip-rule="evenodd" d="M195.453 32.2349L199.182 5.58344C201.641 5.32469 205.064 5.19531 209.468 5.19531C213.068 5.19531 215.688 5.82602 217.327 7.08744C218.951 8.34886 219.561 10.4836 219.143 13.4916C218.918 15.3028 218.356 16.726 217.456 17.7772C216.556 18.8283 215.141 19.459 213.197 19.6693L213.165 19.9442C215.109 20.2838 216.218 21.6746 216.508 24.1166L217.665 32.2349H210.256L209.339 24.0842C209.291 23.308 209.13 22.8067 208.873 22.5641C208.616 22.3215 208.15 22.1921 207.491 22.1921H203.923L202.509 32.2349H195.453ZM204.63 16.8877H208.086C209.388 16.8877 210.32 16.6613 210.85 16.1923C211.381 15.7233 211.766 14.8015 211.959 13.4107C212.12 12.2787 212.007 11.5024 211.638 11.0981C211.268 10.6938 210.513 10.4836 209.355 10.4836L205.514 10.5159L204.63 16.8877Z" fill="#C9991F"></path><path d="M194.686 11.1793H187.132L184.174 32.2353H176.942L179.899 11.1793H172.345L173.117 5.56759H195.457L194.686 11.1793Z" fill="#C9991F"></path><path d="M221.569 32.2353H228.785L232.498 5.56759H225.282L221.569 32.2353Z" fill="#C9991F"></path><path fill-rule="evenodd" clip-rule="evenodd" d="M234.308 32.235L238.037 5.58351C240.448 5.37327 243.871 5.27624 248.323 5.27624C251.859 5.27624 254.302 5.79374 255.684 6.84492C257.05 7.89611 257.565 9.77206 257.195 12.5051C256.938 14.4134 256.408 15.8204 255.604 16.7422C254.8 17.664 253.531 18.1977 251.779 18.3432L251.747 18.5373C255.556 18.8769 257.147 21.3189 256.504 25.8794C256.118 28.4831 255.202 30.2458 253.74 31.1677C252.277 32.0895 249.882 32.5584 246.555 32.5584C241.107 32.5584 237.025 32.4614 234.308 32.2512V32.235ZM243.614 16.1277H246.829C248.034 16.1277 248.87 15.9174 249.352 15.5131C249.818 15.0927 250.155 14.2517 250.332 12.9579C250.461 11.9715 250.364 11.3246 250.059 10.985C249.754 10.6453 249.095 10.4836 248.098 10.4836L244.418 10.4513L243.614 16.1277ZM245.205 27.3187C246.668 27.3187 247.664 27.0923 248.195 26.6395C248.725 26.1867 249.111 25.2649 249.304 23.8741C249.48 22.5803 249.384 21.7394 249.03 21.3189C248.677 20.9146 247.873 20.7043 246.652 20.7043H242.923L242.007 27.3025L242.023 27.3187H245.205Z" fill="#C9991F"></path><path d="M283.614 21.5294L285.913 5.56759H278.696L276.462 21.2545C276.109 23.5832 275.61 25.1519 274.968 25.9767C274.325 26.7853 273.151 27.2058 271.592 27.2058C270.033 27.2058 269.037 26.8176 268.635 26.0252C268.233 25.2489 268.185 23.7449 268.523 21.5294L270.789 5.56759H263.572L261.338 21.2545C260.792 25.3298 261.354 28.2731 263.026 30.0682C264.697 31.8633 267.51 32.7689 271.48 32.7689C275.45 32.7689 278.311 31.9442 280.078 30.2946C281.846 28.6451 283.02 25.7341 283.614 21.5294Z" fill="#C9991F"></path><path d="M314.39 5.56753L311.015 29.8256C310.886 30.6503 310.613 31.2487 310.211 31.6368C309.793 32.025 309.182 32.219 308.363 32.219H305.373C304.682 32.219 304.168 32.0411 303.814 31.7015C303.461 31.3457 303.123 30.7797 302.754 29.9873L297.916 18.5052C297.45 17.5025 297.032 16.0955 296.646 14.3004H296.293C296.325 15.7882 296.244 17.3246 296.068 18.8933L294.139 32.219H287.453L290.828 7.96099C291.053 6.35996 291.937 5.56753 293.48 5.56753H296.469C297.16 5.56753 297.675 5.74542 298.012 6.08503C298.35 6.42465 298.687 7.00684 299.041 7.79927L303.798 18.8124C304.441 20.2841 304.939 21.7719 305.293 23.2921H305.679C305.582 21.8689 305.63 20.3973 305.839 18.8448L307.688 5.55136H314.374L314.39 5.56753Z" fill="#C9991F"></path><path fill-rule="evenodd" clip-rule="evenodd" d="M323.693 26.009H331.794L331.81 25.9929L332.42 32.2191H339.637L335.876 7.57292C335.812 7.0069 335.571 6.53791 335.121 6.14978C334.671 5.76165 334.156 5.56759 333.562 5.56759H326.956C325.734 5.56759 324.867 6.14978 324.384 7.31417L313.745 32.2353H321.266L323.693 26.009ZM330.524 13.7183L331.215 20.5267H325.815L328.499 13.6859C328.804 12.7965 329.077 11.8909 329.302 10.9367H330.411C330.411 12.1658 330.444 13.1038 330.524 13.7183Z" fill="#C9991F"></path><path d="M353.293 5.56759L350.528 24.6991C350.48 25.3136 350.56 25.7665 350.769 26.0252C350.994 26.3001 351.412 26.4295 352.055 26.4295H360.959L360.798 31.9118C358.5 32.1867 354.498 32.3323 348.824 32.3323C346.928 32.3323 345.449 31.7663 344.405 30.6342C343.36 29.5022 342.958 28.0144 343.215 26.1546L346.06 5.56759H353.293Z" fill="#C9991F"></path><path fill-rule="evenodd" clip-rule="evenodd" d="M174.966 40.3533L171.238 67.0048H171.221C174.934 67.2636 178.615 67.3929 182.247 67.3929C184.545 67.3929 186.426 67.1989 187.872 66.8431C189.319 66.4711 190.588 65.7919 191.697 64.7892C192.806 63.7866 193.642 62.4281 194.253 60.7139C194.848 58.9997 195.362 56.7517 195.764 53.9378C196.262 50.3638 196.182 47.5337 195.539 45.4798C194.896 43.426 193.755 41.9867 192.083 41.1781C190.428 40.3695 188.113 39.9652 185.14 39.9652C181.508 39.9652 178.116 40.0946 174.966 40.3533ZM182.183 61.943L179.145 61.9106L179.161 61.8945L181.459 45.399L184.915 45.3666C186.731 45.3666 187.84 45.868 188.258 46.8706C188.676 47.8733 188.66 50.0565 188.226 53.4041C187.92 55.7976 187.503 57.625 186.972 58.8541C186.442 60.0993 185.831 60.908 185.124 61.3284C184.417 61.7327 183.436 61.943 182.183 61.943Z" fill="#C9991F"></path><path d="M218.479 45.8844H218.466L219.315 40.7255C216.952 40.4182 212.677 40.2565 206.489 40.2565C204.593 40.2565 203.082 40.7579 201.957 41.7444C200.832 42.7308 200.141 44.1055 199.884 45.8521L197.891 60.2937C197.601 62.3799 197.971 64.0456 199 65.2747C200.028 66.5199 201.635 67.1344 203.805 67.1344C209.832 67.1344 213.931 67.0051 216.1 66.7463L216.261 61.4904H206.779C206.136 61.4904 205.702 61.361 205.461 61.0861C205.22 60.8112 205.155 60.3907 205.252 59.7923L205.782 55.7817H215.811L216.422 50.833H206.473L206.891 47.6633C206.971 47.0003 207.164 46.5313 207.47 46.2725C207.775 46.0138 208.273 45.8844 208.964 45.8844H218.466L218.463 45.9006L218.479 45.8844Z" fill="#C9991F"></path><path d="M248.428 66.3259L248.155 60.9891C246.001 61.1994 243.237 61.2964 239.862 61.2964C238.254 61.2964 237.258 60.8113 236.92 59.8248C236.567 58.8544 236.615 56.8976 237.049 53.9543C237.354 51.6579 237.724 49.9437 238.142 48.8278C238.56 47.7119 239.058 46.968 239.669 46.6122C240.279 46.2564 241.147 46.0785 242.305 46.0785C244.828 46.0785 247.448 46.1109 250.132 46.1917L250.984 40.9035C248.637 40.2404 245.857 39.9008 242.658 39.9008C238.351 39.9008 235.265 40.855 233.401 42.7471C231.536 44.6554 230.25 48.2132 229.527 53.4368C228.82 58.531 229.238 62.1535 230.781 64.2882C232.324 66.423 235.249 67.4903 239.556 67.4903C242.996 67.4903 245.953 67.1022 248.428 66.3259Z" fill="#C9991F"></path><path fill-rule="evenodd" clip-rule="evenodd" d="M265.506 39.8198C269.862 39.8198 272.867 40.8549 274.523 42.9249C276.178 44.9949 276.66 48.6821 275.937 53.9542C275.584 56.6549 275.069 58.8867 274.426 60.6332C273.767 62.3798 272.9 63.7706 271.823 64.8056C270.746 65.8406 269.476 66.5522 268.062 66.9565C266.648 67.3608 264.864 67.5549 262.742 67.5549C258.306 67.5549 255.301 66.536 253.726 64.4822C252.134 62.4283 251.7 58.7411 252.424 53.4044C253.147 48.1808 254.465 44.6068 256.377 42.6823C258.306 40.7578 261.344 39.8037 265.522 39.8037L265.506 39.8198ZM265.394 45.383C263.706 45.383 262.501 45.949 261.81 47.0649C261.103 48.1808 260.492 50.4772 259.945 53.9542C259.479 57.2048 259.447 59.3557 259.849 60.4068C260.251 61.458 261.263 61.9917 262.903 61.9917C264.542 61.9917 265.828 61.4257 266.551 60.3098C267.274 59.1939 267.885 56.8975 268.399 53.4205C268.865 50.1214 268.898 47.9544 268.496 46.9355C268.094 45.9005 267.065 45.383 265.41 45.383H265.394Z" fill="#C9991F"></path><path d="M361.615 55.2156L366.533 57.4635L366.501 57.4474C367.208 57.7708 367.674 58.0457 367.899 58.3045C368.124 58.5471 368.172 58.9675 368.076 59.5336C367.947 60.2775 367.61 60.7788 367.063 61.0214C366.517 61.264 365.521 61.3933 364.09 61.3933C363.415 61.3933 360.506 61.3286 355.331 61.1993L354.64 66.2935C357.87 67.0859 361.133 67.4902 364.428 67.4902C368.156 67.4902 370.792 66.9565 372.335 65.9053C373.878 64.8541 374.826 62.8326 375.18 59.8408C375.421 57.7708 375.212 56.1374 374.553 54.9084C373.91 53.6793 372.544 52.6281 370.471 51.7225L365.906 49.7171C365.038 49.3613 364.476 49.0217 364.235 48.7306C363.994 48.4395 363.929 48.0029 364.026 47.4369C364.154 46.6606 364.444 46.1755 364.91 45.9652C365.36 45.755 366.147 45.658 367.401 45.658C368.655 45.658 371.58 45.6903 376.192 45.7712L376.851 41.0651C374.296 40.2403 371.306 39.836 367.755 39.836C364.203 39.836 361.599 40.3535 359.927 41.3885C358.256 42.4074 357.243 44.348 356.89 47.1781C356.665 49.0379 356.89 50.6228 357.565 51.9004C358.24 53.1779 359.59 54.2938 361.615 55.2156Z" fill="#C9991F"></path><path d="M301.386 64.6117L304.761 40.3536L304.745 40.3375H298.059L296.211 53.6309C296.002 55.1834 295.954 56.655 296.05 58.0782H295.665C295.311 56.558 294.813 55.0702 294.17 53.5985L289.413 42.5854C289.059 41.7929 288.721 41.2107 288.384 40.8711C288.046 40.5315 287.532 40.3536 286.841 40.3536H283.852C282.309 40.3536 281.425 41.146 281.2 42.7471L277.825 67.0051H284.511L286.439 53.6794C286.616 52.1107 286.696 50.5743 286.664 49.0865H287.018C287.404 50.8816 287.821 52.2886 288.288 53.2912L293.125 64.7734C293.495 65.5658 293.832 66.1318 294.186 66.4876C294.54 66.8272 295.054 67.0051 295.745 67.0051H298.734C299.554 67.0051 300.165 66.8111 300.583 66.4229C300.985 66.0348 301.258 65.4364 301.386 64.6117Z" fill="#C9991F"></path><path d="M322.468 45.9487H330.022L330.794 40.3532H308.453L307.682 45.9487H315.236L312.279 67.0047H319.511L322.468 45.9487Z" fill="#C9991F"></path><path fill-rule="evenodd" clip-rule="evenodd" d="M344.228 60.7947H336.127L333.701 67.0209H326.179L336.819 42.0998C337.301 40.9354 338.169 40.3532 339.39 40.3532H345.996C346.59 40.3532 347.105 40.5473 347.555 40.9354C348.005 41.3235 348.246 41.7925 348.31 42.3586L352.071 67.0047H344.855L344.244 60.7785L344.228 60.7947ZM343.649 55.3124L342.958 48.5039C342.878 47.8894 342.846 46.9514 342.846 45.7223H341.737C341.512 46.6765 341.238 47.5821 340.933 48.4716L338.249 55.3124H343.649Z" fill="#C9991F"></path><path d="M173.188 77.8945L172.391 83.6026C172.534 83.6026 172.726 83.6026 172.981 83.6026C173.236 83.6026 173.411 83.6026 173.506 83.6026C173.889 83.6026 174.208 83.5705 174.431 83.4904C174.654 83.4262 174.877 83.2819 175.068 83.0735C175.259 82.865 175.419 82.5764 175.53 82.1916C175.642 81.8068 175.737 81.2937 175.833 80.6684C175.929 80.0591 175.976 79.5781 175.976 79.2253C175.976 78.8726 175.929 78.6 175.817 78.3755C175.705 78.1671 175.546 78.0228 175.355 77.9587C175.148 77.8945 174.861 77.8625 174.494 77.8625H173.22L173.188 77.8945ZM170.335 84.9655L171.515 76.5316C172.566 76.4515 173.57 76.4194 174.51 76.4194C175.451 76.4194 176.152 76.5477 176.662 76.8042C177.172 77.0608 177.522 77.5257 177.697 78.1671C177.873 78.8085 177.889 79.6903 177.745 80.8127C177.618 81.7266 177.458 82.4642 177.251 83.0093C177.06 83.5705 176.773 83.9874 176.423 84.292C176.072 84.5967 175.674 84.8051 175.243 84.9013C174.797 84.9975 174.224 85.0617 173.506 85.0617C172.598 85.0617 171.531 85.0296 170.335 84.9494" fill="#0B7FC3"></path><path d="M182.894 77.8784C182.241 77.8784 181.778 78.0708 181.508 78.4717C181.237 78.8725 181.014 79.6582 180.838 80.8287C180.679 81.935 180.695 82.6726 180.838 83.0574C180.998 83.4422 181.396 83.6346 182.017 83.6346C182.639 83.6346 183.117 83.4422 183.404 83.0253C183.691 82.6245 183.914 81.8388 184.089 80.6844C184.248 79.562 184.248 78.8244 184.089 78.4396C183.93 78.0708 183.531 77.8784 182.894 77.8784ZM180.121 77.3012C180.711 76.6759 181.651 76.3712 182.942 76.3712C184.232 76.3712 185.125 76.708 185.619 77.3653C186.113 78.0227 186.24 79.1772 186.017 80.8126C185.794 82.4641 185.396 83.5865 184.79 84.1958C184.201 84.8051 183.26 85.1097 181.986 85.1097C180.711 85.1097 179.771 84.789 179.293 84.1316C178.815 83.4743 178.671 82.3198 178.894 80.6683C179.117 79.0489 179.532 77.9265 180.121 77.3012Z" fill="#0B7FC3"></path><path d="M190.414 81.7586L188.82 81.1173C188.215 80.8607 187.8 80.5401 187.593 80.1392C187.386 79.7384 187.322 79.2413 187.386 78.632C187.514 77.7341 187.816 77.1409 188.31 76.8362C188.804 76.5316 189.585 76.3712 190.637 76.3712C191.689 76.3712 192.597 76.4835 193.362 76.708L193.186 77.9746C192.453 77.9586 191.593 77.9426 190.589 77.9426C190.095 77.9426 189.76 77.9746 189.585 78.0548C189.41 78.135 189.282 78.3755 189.235 78.7443C189.187 79.0168 189.219 79.2092 189.298 79.3215C189.378 79.4337 189.585 79.546 189.904 79.6742L191.418 80.2675C192.055 80.524 192.485 80.8287 192.676 81.2135C192.884 81.5983 192.947 82.1114 192.868 82.7688C192.74 83.6987 192.453 84.3241 191.975 84.6447C191.497 84.9654 190.701 85.1257 189.569 85.1257C188.629 85.1257 187.673 85.0135 186.685 84.789L186.876 83.4582C188.597 83.5063 189.458 83.5224 189.49 83.5224C190.063 83.5224 190.446 83.4743 190.637 83.362C190.844 83.2498 190.971 83.0253 191.019 82.6565C191.051 82.384 191.019 82.1915 190.94 82.0793C190.86 81.9671 190.685 81.8709 190.414 81.7586Z" fill="#0B7FC3"></path><path d="M204.325 76.5317H206.109C206.333 76.5317 206.508 76.5959 206.619 76.7241C206.731 76.8524 206.779 77.0288 206.747 77.2532L205.998 84.9655H204.245L204.978 77.9908H204.771L202.795 83.2499C202.668 83.6187 202.413 83.8111 202.014 83.8111H200.803C200.389 83.8111 200.15 83.6027 200.118 83.1858L199.528 77.9908H199.321L198.126 84.9655H196.373L197.776 77.1891C197.807 76.9646 197.887 76.7883 197.999 76.6921C198.11 76.5798 198.285 76.5317 198.493 76.5317H200.23C200.628 76.5317 200.851 76.7402 200.883 77.1731L201.361 81.3739C201.409 81.7107 201.425 82.1115 201.425 82.5765H201.6C201.711 82.2077 201.839 81.8069 201.982 81.4221L203.56 77.125C203.687 76.7562 203.942 76.5638 204.341 76.5477" fill="#0B7FC3"></path><path d="M215.32 76.5317L214.587 81.6465C214.396 82.9292 214.029 83.8271 213.487 84.3563C212.946 84.8693 212.085 85.1259 210.922 85.1259C209.759 85.1259 208.898 84.8533 208.404 84.2921C207.91 83.7309 207.751 82.833 207.926 81.5664L208.627 76.5317H210.492L209.775 81.6465C209.663 82.4162 209.679 82.9292 209.854 83.2178C210.014 83.4904 210.38 83.6347 210.954 83.6347C211.527 83.6347 211.958 83.4904 212.213 83.2018C212.468 82.9132 212.659 82.368 212.77 81.5824L213.472 76.5477H215.336L215.32 76.5317Z" fill="#0B7FC3"></path><path d="M223.957 76.5317L222.857 84.3242C222.794 84.7411 222.57 84.9655 222.172 84.9655H221.136C220.945 84.9655 220.818 84.9174 220.722 84.8373C220.626 84.7411 220.531 84.5968 220.451 84.3883L218.778 79.8988C218.619 79.498 218.507 79.0651 218.411 78.6322H218.284C218.268 79.1292 218.236 79.5621 218.188 79.9469L217.503 84.9816H215.734L216.834 77.1891C216.898 76.7722 217.121 76.5477 217.535 76.5477H218.555C218.73 76.5477 218.874 76.5959 218.969 76.6921C219.065 76.7883 219.16 76.9326 219.24 77.141L220.85 81.4862C221.041 81.9832 221.184 82.4322 221.28 82.8491H221.423C221.423 82.3681 221.455 81.9191 221.503 81.4862L222.172 76.5317H223.957Z" fill="#0B7FC3"></path><path d="M226.316 84.9655H224.452L225.631 76.5317H227.495L226.316 84.9655Z" fill="#0B7FC3"></path><path d="M233.931 83.378L234.011 84.773C233.278 84.9974 232.385 85.1097 231.333 85.1097C230.043 85.1097 229.166 84.773 228.688 84.0835C228.226 83.394 228.099 82.2556 228.322 80.6843C228.545 79.0488 228.959 77.9265 229.533 77.3172C230.122 76.7079 231.063 76.3872 232.353 76.3872C233.278 76.3872 234.122 76.4834 234.855 76.6758L234.616 78.0547C233.963 78.0227 233.182 77.9906 232.29 77.9906C231.859 77.9906 231.525 78.0547 231.286 78.1991C231.047 78.3434 230.84 78.5999 230.68 79.0168C230.521 79.4176 230.377 80.0269 230.266 80.8126C230.122 81.8548 230.122 82.5763 230.266 82.9451C230.425 83.3139 230.792 83.4902 231.397 83.4902C232.353 83.4902 233.214 83.4582 233.931 83.378Z" fill="#0B7FC3"></path><path d="M239.685 74.8319L236.801 76.1306L236.355 75.361L239.016 73.5171L239.701 74.8319H239.685ZM236.945 84.9653H235.08L236.259 76.5315H238.124L236.945 84.9653Z" fill="#0B7FC3"></path><path d="M241.086 80.492H242.345C242.854 80.492 243.189 80.3958 243.38 80.2194C243.572 80.0431 243.715 79.6583 243.795 79.0971C243.858 78.6161 243.827 78.2793 243.699 78.103C243.556 77.9266 243.269 77.8464 242.839 77.8464H241.468L241.086 80.492ZM238.632 84.9655L239.811 76.5316C240.56 76.4515 241.58 76.4194 242.902 76.4194C244.034 76.4194 244.799 76.6278 245.229 77.0447C245.643 77.4616 245.787 78.1992 245.643 79.2414C245.5 80.3156 245.197 81.0372 244.751 81.3899C244.305 81.7427 243.556 81.919 242.488 81.919C241.93 81.919 241.404 81.887 240.926 81.8068L240.48 84.9494H238.632V84.9655Z" fill="#0B7FC3"></path><path d="M247.875 84.9655H246.026L247.205 76.5317H249.054L247.875 84.9655Z" fill="#0B7FC3"></path><path d="M253.882 77.8784C253.229 77.8784 252.767 78.0708 252.496 78.4717C252.225 78.8725 252.002 79.6582 251.827 80.8287C251.668 81.935 251.683 82.6726 251.827 83.0574C251.986 83.4422 252.385 83.6346 253.006 83.6346C253.628 83.6346 254.106 83.4422 254.392 83.0253C254.679 82.6245 254.902 81.8388 255.078 80.6844C255.237 79.562 255.237 78.8244 255.078 78.4396C254.918 78.0708 254.52 77.8784 253.882 77.8784ZM251.11 77.3012C251.699 76.6759 252.64 76.3712 253.93 76.3712C255.221 76.3712 256.113 76.708 256.607 77.3653C257.101 78.0227 257.229 79.1772 257.006 80.8126C256.783 82.4641 256.384 83.5865 255.779 84.1958C255.189 84.8051 254.249 85.1097 252.974 85.1097C251.699 85.1097 250.759 84.789 250.281 84.1316C249.803 83.4743 249.66 82.3198 249.883 80.6683C250.106 79.0489 250.52 77.9265 251.11 77.3012Z" fill="#0B7FC3"></path><path d="M261.404 81.7586L259.811 81.1173C259.205 80.8607 258.791 80.5401 258.584 80.1392C258.376 79.7384 258.313 79.2413 258.376 78.632C258.504 77.7341 258.807 77.1409 259.301 76.8362C259.795 76.5316 260.575 76.3712 261.627 76.3712C262.679 76.3712 263.587 76.4835 264.352 76.708L264.177 77.9746C263.444 77.9586 262.583 77.9426 261.579 77.9426C261.085 77.9426 260.751 77.9746 260.575 78.0548C260.4 78.135 260.273 78.3755 260.225 78.7443C260.177 79.0168 260.209 79.2092 260.289 79.3215C260.368 79.4337 260.575 79.546 260.894 79.6742L262.408 80.2675C263.045 80.524 263.476 80.8287 263.667 81.2135C263.874 81.5983 263.938 82.1114 263.858 82.7688C263.731 83.6987 263.444 84.3241 262.966 84.6447C262.488 84.9654 261.691 85.1257 260.56 85.1257C259.619 85.1257 258.663 85.0135 257.675 84.789L257.867 83.4582C259.588 83.5063 260.448 83.5224 260.48 83.5224C261.054 83.5224 261.436 83.4743 261.627 83.362C261.834 83.2498 261.962 83.0253 262.01 82.6565C262.041 82.384 262.01 82.1915 261.93 82.0793C261.85 81.9671 261.675 81.8709 261.404 81.7586Z" fill="#0B7FC3"></path><path d="M270.328 77.8945L269.532 83.6026C269.675 83.6026 269.866 83.6026 270.121 83.6026C270.376 83.6026 270.552 83.6026 270.647 83.6026C271.03 83.6026 271.348 83.5705 271.571 83.4904C271.794 83.4262 272.018 83.2819 272.209 83.0735C272.4 82.865 272.559 82.5764 272.671 82.1916C272.782 81.8068 272.878 81.2937 272.974 80.6684C273.069 80.0591 273.117 79.5781 273.117 79.2253C273.117 78.8726 273.069 78.6 272.958 78.3755C272.846 78.1671 272.687 78.0228 272.496 77.9587C272.288 77.8945 272.002 77.8625 271.635 77.8625H270.36L270.328 77.8945ZM267.476 84.9655L268.655 76.5316C269.707 76.4515 270.711 76.4194 271.651 76.4194C272.591 76.4194 273.292 76.5477 273.802 76.8042C274.312 77.0608 274.663 77.5257 274.838 78.1671C275.013 78.8085 275.029 79.6903 274.886 80.8127C274.758 81.7266 274.599 82.4642 274.392 83.0093C274.201 83.5705 273.914 83.9874 273.563 84.292C273.213 84.5967 272.814 84.8051 272.384 84.9013C271.954 84.9975 271.364 85.0617 270.647 85.0617C269.739 85.0617 268.671 85.0296 267.476 84.9494" fill="#0B7FC3"></path><path d="M280.016 77.8784C279.363 77.8784 278.901 78.0708 278.63 78.4717C278.359 78.8725 278.136 79.6582 277.96 80.8287C277.801 81.935 277.817 82.6726 277.96 83.0574C278.12 83.4422 278.518 83.6346 279.14 83.6346C279.761 83.6346 280.239 83.4422 280.526 83.0253C280.813 82.6245 281.036 81.8388 281.211 80.6844C281.37 79.562 281.37 78.8244 281.211 78.4396C281.052 78.0708 280.653 77.8784 280.016 77.8784ZM277.259 77.3012C277.849 76.6759 278.789 76.3712 280.08 76.3712C281.37 76.3712 282.263 76.708 282.757 77.3653C283.251 78.0227 283.378 79.1772 283.155 80.8126C282.932 82.4641 282.534 83.5865 281.928 84.1958C281.339 84.8051 280.398 85.1097 279.124 85.1097C277.849 85.1097 276.909 84.789 276.431 84.1316C275.953 83.4743 275.809 82.3198 276.032 80.6683C276.255 79.0489 276.67 77.9265 277.259 77.3012Z" fill="#0B7FC3"></path><path d="M293.115 77.9907H289.976C289.737 77.9907 289.577 78.0388 289.466 78.135C289.37 78.2312 289.29 78.4076 289.259 78.6481L289.067 79.9148H292.366L292.191 81.2296H288.876L288.653 82.849C288.621 83.0735 288.653 83.2338 288.733 83.33C288.812 83.4262 288.972 83.4743 289.195 83.4743H292.286L292.238 84.8532C291.521 84.9334 290.31 84.9815 288.605 84.9815C287.92 84.9815 287.426 84.8051 287.107 84.4364C286.789 84.0676 286.677 83.5705 286.757 82.9452L287.426 78.135C287.506 77.6059 287.713 77.2051 288.048 76.9165C288.382 76.6279 288.844 76.4835 289.418 76.4835C291.187 76.4835 292.477 76.5317 293.274 76.6118L293.051 77.9747L293.115 77.9907Z" fill="#0B7FC3"></path><path d="M297.13 81.7586L295.537 81.1173C294.931 80.8607 294.517 80.5401 294.31 80.1392C294.103 79.7384 294.039 79.2413 294.103 78.632C294.23 77.7341 294.533 77.1409 295.027 76.8362C295.521 76.5316 296.302 76.3712 297.353 76.3712C298.405 76.3712 299.313 76.4835 300.078 76.708L299.903 77.9746C299.17 77.9586 298.309 77.9426 297.305 77.9426C296.812 77.9426 296.477 77.9746 296.302 78.0548C296.126 78.135 295.999 78.3755 295.951 78.7443C295.903 79.0168 295.935 79.2092 296.015 79.3215C296.094 79.4337 296.302 79.546 296.62 79.6742L298.134 80.2675C298.771 80.524 299.202 80.8287 299.393 81.2135C299.6 81.5983 299.664 82.1114 299.584 82.7688C299.457 83.6987 299.17 84.3241 298.692 84.6447C298.214 84.9654 297.417 85.1257 296.286 85.1257C295.346 85.1257 294.389 85.0135 293.401 84.789L293.593 83.4582C295.314 83.5063 296.174 83.5224 296.206 83.5224C296.78 83.5224 297.162 83.4743 297.353 83.362C297.56 83.2498 297.688 83.0253 297.736 82.6565C297.768 82.384 297.736 82.1915 297.656 82.0793C297.576 81.9671 297.401 81.8709 297.13 81.7586Z" fill="#0B7FC3"></path><path d="M307.726 78.0389H305.225L304.252 84.9655H302.404L303.376 78.0389H300.89L301.097 76.5317H307.933L307.726 78.0389Z" fill="#0B7FC3"></path><path d="M311.806 81.2777L311.472 78.7284C311.456 78.552 311.424 78.2794 311.408 77.9106H311.057C310.914 78.3275 310.818 78.6001 310.771 78.7123L309.719 81.2777H311.806ZM309.113 82.7689L308.221 84.9655H306.293L309.814 76.9807C309.926 76.676 310.149 76.5317 310.484 76.5317H312.237C312.396 76.5317 312.523 76.5798 312.651 76.6921C312.762 76.7883 312.826 76.9165 312.842 77.0608L314.149 84.9655H312.3L312.029 82.7689H309.113Z" fill="#0B7FC3"></path><path d="M317.781 77.8945L316.985 83.6026C317.128 83.6026 317.319 83.6026 317.574 83.6026C317.829 83.6026 318.004 83.6026 318.1 83.6026C318.482 83.6026 318.801 83.5705 319.024 83.4904C319.247 83.4262 319.47 83.2819 319.662 83.0735C319.853 82.865 320.012 82.5764 320.124 82.1916C320.235 81.8068 320.331 81.2937 320.427 80.6684C320.522 80.0591 320.57 79.5781 320.57 79.2253C320.57 78.8726 320.522 78.6 320.411 78.3755C320.299 78.1671 320.14 78.0228 319.948 77.9587C319.741 77.8945 319.454 77.8625 319.088 77.8625H317.813L317.781 77.8945ZM314.945 84.9655L316.124 76.5316C317.176 76.4515 318.18 76.4194 319.12 76.4194C320.06 76.4194 320.761 76.5477 321.271 76.8042C321.781 77.0608 322.132 77.5257 322.307 78.1671C322.482 78.8085 322.498 79.6903 322.355 80.8127C322.227 81.7266 322.068 82.4642 321.861 83.0093C321.669 83.5705 321.383 83.9874 321.032 84.292C320.681 84.5967 320.283 84.8051 319.853 84.9013C319.423 84.9975 318.833 85.0617 318.116 85.0617C317.208 85.0617 316.14 85.0296 314.945 84.9494" fill="#0B7FC3"></path><path d="M327.487 77.8784C326.834 77.8784 326.372 78.0708 326.101 78.4717C325.83 78.8725 325.607 79.6582 325.432 80.8287C325.273 81.935 325.288 82.6726 325.432 83.0574C325.591 83.4422 325.99 83.6346 326.611 83.6346C327.232 83.6346 327.711 83.4422 327.997 83.0253C328.284 82.6245 328.507 81.8388 328.683 80.6844C328.842 79.562 328.842 78.8244 328.683 78.4396C328.523 78.0708 328.125 77.8784 327.487 77.8784ZM324.731 77.3012C325.32 76.6759 326.26 76.3712 327.551 76.3712C328.842 76.3712 329.734 76.708 330.228 77.3653C330.722 78.0227 330.85 79.1772 330.627 80.8126C330.404 82.4641 330.005 83.5865 329.4 84.1958C328.81 84.8051 327.87 85.1097 326.595 85.1097C325.32 85.1097 324.38 84.789 323.902 84.1316C323.424 83.4743 323.281 82.3198 323.504 80.6683C323.727 79.0489 324.141 77.9265 324.731 77.3012Z" fill="#0B7FC3"></path><path d="M336.919 77.8945L336.122 83.6026C336.266 83.6026 336.457 83.6026 336.712 83.6026C336.967 83.6026 337.142 83.6026 337.238 83.6026C337.62 83.6026 337.939 83.5705 338.162 83.4904C338.385 83.4262 338.608 83.2819 338.799 83.0735C338.99 82.865 339.15 82.5764 339.261 82.1916C339.373 81.8068 339.468 81.2937 339.564 80.6684C339.66 80.0591 339.708 79.5781 339.708 79.2253C339.708 78.8726 339.66 78.6 339.548 78.3755C339.437 78.1671 339.277 78.0228 339.086 77.9587C338.879 77.8945 338.592 77.8625 338.226 77.8625H336.951L336.919 77.8945ZM334.067 84.9655L335.246 76.5316C336.297 76.4515 337.301 76.4194 338.242 76.4194C339.182 76.4194 339.883 76.5477 340.393 76.8042C340.903 77.0608 341.253 77.5257 341.428 78.1671C341.604 78.8085 341.62 79.6903 341.476 80.8127C341.349 81.7266 341.189 82.4642 340.982 83.0093C340.791 83.5705 340.504 83.9874 340.154 84.292C339.803 84.5967 339.405 84.8051 338.975 84.9013C338.544 84.9975 337.955 85.0617 337.238 85.0617C336.329 85.0617 335.262 85.0296 334.067 84.9494" fill="#0B7FC3"></path><path d="M348.822 77.9907H345.683C345.444 77.9907 345.284 78.0388 345.173 78.135C345.077 78.2312 344.998 78.4076 344.966 78.6481L344.774 79.9148H348.073L347.898 81.2296H344.583L344.36 82.849C344.328 83.0735 344.36 83.2338 344.44 83.33C344.519 83.4262 344.679 83.4743 344.902 83.4743H347.993L347.945 84.8532C347.228 84.9334 346.017 84.9815 344.312 84.9815C343.627 84.9815 343.133 84.8051 342.814 84.4364C342.496 84.0676 342.384 83.5705 342.464 82.9452L343.133 78.135C343.213 77.6059 343.42 77.2051 343.755 76.9165C344.089 76.6279 344.551 76.4835 345.125 76.4835C346.894 76.4835 348.184 76.5317 348.981 76.6118L348.758 77.9747L348.822 77.9907Z" fill="#0B7FC3"></path><path d="M357.139 80.0911H358.908L358.223 84.9654H356.868L356.82 83.9232C356.087 84.7249 355.259 85.1257 354.303 85.1257C353.442 85.1257 352.837 84.773 352.47 84.0675C352.104 83.362 352.024 82.2236 352.215 80.6844C352.327 79.8025 352.502 79.081 352.725 78.5038C352.948 77.9265 353.235 77.4936 353.618 77.189C353.984 76.8843 354.398 76.6599 354.845 76.5476C355.291 76.4354 355.848 76.3712 356.502 76.3712C357.506 76.3712 358.366 76.4674 359.067 76.6759L358.828 78.0388C357.92 77.9907 357.139 77.9746 356.518 77.9746C355.737 77.9746 355.179 78.151 354.86 78.5358C354.542 78.9046 354.303 79.6742 354.143 80.8287C354.016 81.8548 354.016 82.5764 354.143 82.9451C354.271 83.33 354.574 83.5224 355.068 83.5224C355.402 83.5224 355.705 83.4582 355.944 83.3139C356.183 83.1857 356.47 82.9612 356.789 82.6726L357.139 80.0911Z" fill="#0B7FC3"></path><path d="M364.01 77.8784C363.357 77.8784 362.895 78.0708 362.624 78.4717C362.353 78.8725 362.13 79.6582 361.955 80.8287C361.795 81.935 361.811 82.6726 361.955 83.0574C362.114 83.4422 362.512 83.6346 363.134 83.6346C363.755 83.6346 364.233 83.4422 364.52 83.0253C364.807 82.6245 365.03 81.8388 365.205 80.6844C365.365 79.562 365.365 78.8244 365.205 78.4396C365.046 78.0708 364.648 77.8784 364.01 77.8784ZM361.254 77.3012C361.843 76.6759 362.783 76.3712 364.074 76.3712C365.365 76.3712 366.257 76.708 366.751 77.3653C367.245 78.0227 367.373 79.1772 367.149 80.8126C366.926 82.4641 366.528 83.5865 365.922 84.1958C365.333 84.8051 364.393 85.1097 363.118 85.1097C361.843 85.1097 360.903 84.789 360.425 84.1316C359.947 83.4743 359.803 82.3198 360.027 80.6683C360.25 79.0489 360.664 77.9265 361.254 77.3012Z" fill="#0B7FC3"></path><path d="M369.808 84.9655H367.96L369.123 76.5317H370.987L369.808 84.9655Z" fill="#0B7FC3"></path><path d="M375.37 76.1306L374.924 75.361L377.569 73.5171L378.254 74.8319L375.37 76.1306ZM376.214 81.2775L375.88 78.7281C375.864 78.5517 375.832 78.2792 375.816 77.9104H375.466C375.322 78.3273 375.226 78.5998 375.179 78.7121L374.127 81.2775H376.214ZM373.521 82.7686L372.629 84.9653H370.701L374.223 76.9804C374.334 76.6758 374.557 76.5315 374.892 76.5315H376.645C376.804 76.5315 376.932 76.5796 377.059 76.6918C377.171 76.788 377.234 76.9163 377.25 77.0606L378.557 84.9653H376.708L376.438 82.7686H373.521Z" fill="#0B7FC3"></path><path d="M382.939 81.7586L381.346 81.1173C380.74 80.8607 380.326 80.5401 380.119 80.1392C379.912 79.7384 379.848 79.2413 379.912 78.632C380.039 77.7341 380.342 77.1409 380.836 76.8362C381.33 76.5316 382.111 76.3712 383.162 76.3712C384.214 76.3712 385.122 76.4835 385.887 76.708L385.712 77.9746C384.979 77.9586 384.118 77.9426 383.115 77.9426C382.621 77.9426 382.286 77.9746 382.111 78.0548C381.935 78.135 381.808 78.3755 381.76 78.7443C381.712 79.0168 381.744 79.2092 381.824 79.3215C381.904 79.4337 382.111 79.546 382.429 79.6742L383.943 80.2675C384.581 80.524 385.011 80.8287 385.202 81.2135C385.409 81.5983 385.473 82.1114 385.393 82.7688C385.266 83.6987 384.979 84.3241 384.501 84.6447C384.023 84.9654 383.226 85.1257 382.095 85.1257C381.155 85.1257 380.199 85.0135 379.211 84.789L379.402 83.4582C381.123 83.5063 381.983 83.5224 382.015 83.5224C382.589 83.5224 382.971 83.4743 383.162 83.362C383.37 83.2498 383.497 83.0253 383.545 82.6565C383.577 82.384 383.545 82.1915 383.465 82.0793C383.385 81.9671 383.21 81.8709 382.939 81.7586Z" fill="#0B7FC3"></path></g><defs><radialGradient id="paint0_radial_8623_10921" cx="0" cy="0" r="1" gradientUnits="userSpaceOnUse" gradientTransform="translate(133.548 56.6089) rotate(-172.224) scale(66.2116 97.3935)"><stop stop-color="#0D95D4"></stop><stop offset="1" stop-color="#007FC6"></stop></radialGradient><clipPath id="clip0_8623_10921"><rect width="392" height="91" fill="white" transform="translate(0 0.5)"></rect></clipPath></defs></svg> 